<svg xmlns="http://www.w3.org/2000/svg" viewBox="0 0 576 512">
    <path d="M243.1 2.7c11.8 6.1 16.3 20.6 10.2 32.4L171.7 192h232.6L322.7 35.1c-6.1-11.8-1.5-26.3 10.2-32.4 11.7-6.1 26.2-1.5 32.4 10.2L458.4 192H552c13.3 0 24 10.7 24 24s-10.7 24-24 24h-20l-55.9 223.5C469 492 443.4 512 414 512H162c-29.4 0-55-20-62.1-48.5L44 240H24c-13.3 0-24-10.7-24-24s10.7-24 24-24h93.6l93.1-179.1c6.1-11.8 20.6-16.3 32.4-10.2ZM482.5 240h-389l53 211.9c1.8 7.1 8.2 12.1 15.5 12.1h252c7.3 0 13.7-5 15.5-12.1l53-211.9Z"/>
    <path d="M312.5 321.5v-40c0-13.3-10.7-24-24-24s-24 10.7-24 24v40h-40c-13.3 0-24 10.7-24 24s10.7 24 24 24h40v40c0 13.3 10.7 24 24 24s24-10.7 24-24v-40h40c13.3 0 24-10.7 24-24s-10.7-24-24-24h-40Z"/>
    <path d="M311.5 321.5v-40c0-13.3-10.7-24-24-24s-24 10.7-24 24v40h-40c-13.3 0-24 10.7-24 24s10.7 24 24 24h40v40c0 13.3 10.7 24 24 24s24-10.7 24-24v-40h40c13.3 0 24-10.7 24-24s-10.7-24-24-24h-40Z"/>
    <path d="M312.5 321.5v-40c0-13.3-10.7-24-24-24s-24 10.7-24 24v40h-40c-13.3 0-24 10.7-24 24s10.7 24 24 24h40v40c0 13.3 10.7 24 24 24s24-10.7 24-24v-40h40c13.3 0 24-10.7 24-24s-10.7-24-24-24h-40Z"/>
</svg>
