<svg viewBox="0 0 1017 228" fill="none" xmlns="http://www.w3.org/2000/svg">
<path d="M199.874 48.347C199.874 43.994 199.782 40.441 199.692 38.007C199.692 34.463 148.798 26.126 111.769 26.126C74.741 26.126 24.378 34.494 24.312 37.956C24.266 40.393 24.126 43.963 24.125 48.346C24.135 63.128 25.172 87.083 31.139 108.011L31.153 108.061L31.169 108.115C41.75 141.183 61.543 164.425 78.65 179.375C95.767 194.331 110.23 201.05 110.456 201.156L112.002 201.873L113.548 201.155C113.766 201.05 128.235 194.33 145.351 179.375C162.458 164.426 182.249 141.183 192.831 108.115L192.849 108.058L192.861 108.011C198.83 87.084 199.865 63.129 199.874 48.347" fill="#EB6400"/>
<path d="M145.413 132.517H122.318L142.37 57.499H125.749L101.394 148.611H141.111L145.413 132.517Z" fill="white"/>
<path d="M165.485 57.499H148.863L130.485 126.253H169.329L173.631 110.159H151.408L165.485 57.499Z" fill="white"/>
<path d="M102.625 57.499L95.467 84.279H78.687L85.845 57.499H69.223L50.845 126.253H67.467L74.385 100.373H91.165L78.27 148.611H94.892L119.247 57.499H102.625Z" fill="white"/>
<path d="M291.15 61.922H321.148V31.076H341.924V111H321.148V78.034H291.15V111H270.374V31.076H291.15V61.922Z" fill="black"/>
<path d="M375.209 72.628L346.059 31.076H370.863L385.703 52.912L400.437 31.076H425.241L395.985 72.628V111H375.209V72.628Z" fill="black"/>
<path d="M450.538 66.798H454.46C458.559 66.798 461.704 65.95 463.894 64.254C466.085 62.558 467.18 60.12 467.18 56.94C467.18 53.76 466.085 51.322 463.894 49.626C461.704 47.93 458.559 47.082 454.46 47.082H450.538V66.798ZM496.224 111H470.36L450.538 80.26V111H429.762V31.076H462.092C466.544 31.076 470.431 31.7473 473.752 33.09C477.074 34.362 479.794 36.1286 481.914 38.39C484.105 40.6513 485.73 43.266 486.79 46.234C487.921 49.202 488.486 52.382 488.486 55.774C488.486 61.8513 487.002 66.798 484.034 70.614C481.137 74.3593 476.826 76.9033 471.102 78.246L496.224 111Z" fill="black"/>
<path d="M547.633 48.672H522.935V62.028H546.255V79.624H522.935V93.404H547.633V111H502.159V31.076H547.633V48.672Z" fill="black"/>
<path d="M603.74 51.534C601.479 49.6966 599.217 48.354 596.956 47.506C594.695 46.5873 592.504 46.128 590.384 46.128C587.699 46.128 585.508 46.764 583.812 48.036C582.116 49.308 581.268 50.9686 581.268 53.018C581.268 54.4313 581.692 55.5973 582.54 56.516C583.388 57.4346 584.483 58.2473 585.826 58.954C587.239 59.59 588.794 60.1553 590.49 60.65C592.257 61.1446 593.988 61.6746 595.684 62.24C602.468 64.5013 607.415 67.54 610.524 71.356C613.704 75.1013 615.294 80.0126 615.294 86.09C615.294 90.1886 614.587 93.8986 613.174 97.22C611.831 100.541 609.817 103.403 607.132 105.806C604.517 108.138 601.267 109.94 597.38 111.212C593.564 112.555 589.218 113.226 584.342 113.226C574.237 113.226 564.873 110.223 556.252 104.216L565.156 87.468C568.265 90.224 571.339 92.2733 574.378 93.616C577.417 94.9586 580.42 95.63 583.388 95.63C586.78 95.63 589.289 94.8526 590.914 93.298C592.61 91.7433 593.458 89.9766 593.458 87.998C593.458 86.7966 593.246 85.772 592.822 84.924C592.398 84.0053 591.691 83.1926 590.702 82.486C589.713 81.7086 588.405 81.002 586.78 80.366C585.225 79.73 583.317 79.0233 581.056 78.246C578.371 77.398 575.721 76.4793 573.106 75.49C570.562 74.43 568.265 73.052 566.216 71.356C564.237 69.66 562.612 67.54 561.34 64.996C560.139 62.3813 559.538 59.0953 559.538 55.138C559.538 51.1806 560.174 47.612 561.446 44.432C562.789 41.1813 564.626 38.4253 566.958 36.164C569.361 33.832 572.258 32.03 575.65 30.758C579.113 29.486 582.964 28.85 587.204 28.85C591.161 28.85 595.295 29.4153 599.606 30.546C603.917 31.606 608.051 33.196 612.008 35.316L603.74 51.534Z" fill="black"/>
<path d="M291.15 123.076V185.404H316.06V203H270.374V123.076H291.15Z" fill="black"/>
<path d="M370.807 173.32L361.479 146.714L352.151 173.32H370.807ZM376.319 189.114H346.639L341.869 203H319.715L350.137 123.076H372.821L403.243 203H381.089L376.319 189.114Z" fill="black"/>
<path d="M409.577 203V123.076H430.353L468.725 171.942V123.076H489.395V203H468.725L430.353 154.134V203H409.577Z" fill="black"/>
<path d="M524.177 185.404H528.947C532.551 185.404 535.766 184.839 538.593 183.708C541.42 182.577 543.787 181.023 545.695 179.044C547.674 177.065 549.158 174.733 550.147 172.048C551.207 169.292 551.737 166.289 551.737 163.038C551.737 159.858 551.207 156.89 550.147 154.134C549.087 151.378 547.568 149.011 545.589 147.032C543.681 145.053 541.314 143.499 538.487 142.368C535.66 141.237 532.48 140.672 528.947 140.672H524.177V185.404ZM503.401 123.076H534.141C539.582 123.076 544.67 124.171 549.405 126.362C554.21 128.553 558.38 131.485 561.913 135.16C565.517 138.764 568.344 143.004 570.393 147.88C572.442 152.685 573.467 157.738 573.467 163.038C573.467 168.267 572.442 173.32 570.393 178.196C568.414 183.001 565.623 187.241 562.019 190.916C558.486 194.591 554.316 197.523 549.511 199.714C544.776 201.905 539.653 203 534.141 203H503.401V123.076Z" fill="black"/>
<path d="M627.859 143.534C625.598 141.697 623.336 140.354 621.075 139.506C618.814 138.587 616.623 138.128 614.503 138.128C611.818 138.128 609.627 138.764 607.931 140.036C606.235 141.308 605.387 142.969 605.387 145.018C605.387 146.431 605.811 147.597 606.659 148.516C607.507 149.435 608.602 150.247 609.945 150.954C611.358 151.59 612.913 152.155 614.609 152.65C616.376 153.145 618.107 153.675 619.803 154.24C626.587 156.501 631.534 159.54 634.643 163.356C637.823 167.101 639.413 172.013 639.413 178.09C639.413 182.189 638.706 185.899 637.293 189.22C635.95 192.541 633.936 195.403 631.251 197.806C628.636 200.138 625.386 201.94 621.499 203.212C617.683 204.555 613.337 205.226 608.461 205.226C598.356 205.226 588.992 202.223 580.371 196.216L589.275 179.468C592.384 182.224 595.458 184.273 598.497 185.616C601.536 186.959 604.539 187.63 607.507 187.63C610.899 187.63 613.408 186.853 615.033 185.298C616.729 183.743 617.577 181.977 617.577 179.998C617.577 178.797 617.365 177.772 616.941 176.924C616.517 176.005 615.81 175.193 614.821 174.486C613.832 173.709 612.524 173.002 610.899 172.366C609.344 171.73 607.436 171.023 605.175 170.246C602.49 169.398 599.84 168.479 597.225 167.49C594.681 166.43 592.384 165.052 590.335 163.356C588.356 161.66 586.731 159.54 585.459 156.996C584.258 154.381 583.657 151.095 583.657 147.138C583.657 143.181 584.293 139.612 585.565 136.432C586.908 133.181 588.745 130.425 591.077 128.164C593.48 125.832 596.377 124.03 599.769 122.758C603.232 121.486 607.083 120.85 611.323 120.85C615.28 120.85 619.414 121.415 623.725 122.546C628.036 123.606 632.17 125.196 636.127 127.316L627.859 143.534Z" fill="black"/>
<path d="M670.522 123.076V185.404H695.432V203H649.746V123.076H670.522Z" fill="black"/>
<path d="M750.179 173.32L740.851 146.714L731.523 173.32H750.179ZM755.691 189.114H726.011L721.241 203H699.087L729.509 123.076H752.193L782.615 203H760.461L755.691 189.114Z" fill="black"/>
<path d="M825.263 158.268H866.497C866.497 162.508 866.321 166.359 865.967 169.822C865.614 173.285 864.907 176.5 863.847 179.468C862.363 183.637 860.349 187.347 857.805 190.598C855.261 193.778 852.258 196.463 848.795 198.654C845.403 200.774 841.658 202.399 837.559 203.53C833.461 204.661 829.15 205.226 824.627 205.226C818.409 205.226 812.72 204.201 807.561 202.152C802.473 200.103 798.092 197.241 794.417 193.566C790.743 189.821 787.881 185.369 785.831 180.21C783.782 174.981 782.757 169.221 782.757 162.932C782.757 156.713 783.747 151.025 785.725 145.866C787.775 140.637 790.637 136.185 794.311 132.51C798.057 128.835 802.544 125.973 807.773 123.924C813.003 121.875 818.833 120.85 825.263 120.85C833.602 120.85 840.916 122.652 847.205 126.256C853.495 129.86 858.477 135.443 862.151 143.004L842.435 151.166C840.598 146.785 838.195 143.64 835.227 141.732C832.33 139.824 829.009 138.87 825.263 138.87C822.154 138.87 819.327 139.471 816.783 140.672C814.239 141.803 812.049 143.463 810.211 145.654C808.445 147.774 807.031 150.353 805.971 153.392C804.982 156.431 804.487 159.823 804.487 163.568C804.487 166.96 804.911 170.105 805.759 173.002C806.678 175.899 808.021 178.408 809.787 180.528C811.554 182.648 813.745 184.309 816.359 185.51C818.974 186.641 822.013 187.206 825.475 187.206C827.525 187.206 829.503 186.994 831.411 186.57C833.319 186.075 835.015 185.333 836.499 184.344C838.054 183.284 839.326 181.941 840.315 180.316C841.305 178.691 841.976 176.712 842.329 174.38H825.263V158.268Z" fill="black"/>
<path d="M922.347 140.672H897.649V154.028H920.969V171.624H897.649V185.404H922.347V203H876.873V123.076H922.347V140.672Z" fill="black"/>
<path d="M964.886 140.672V203H944.11V140.672H927.044V123.076H981.952V140.672H964.886Z" fill="black"/>
</svg>
