<svg xmlns="http://www.w3.org/2000/svg" viewBox="0 0 180 180">
    <path fill="#ffffff" d="M177.874 24.347c0-4.353-.092-7.906-.182-10.34 0-3.544-50.894-11.881-87.923-11.881-37.028 0-87.391 8.368-87.457 11.83-.046 2.437-.186 6.007-.187 10.39.01 14.782 1.047 38.737 7.014 59.665l.014.05.016.054c10.581 33.068 30.374 56.31 47.481 71.26 17.117 14.956 31.58 21.675 31.806 21.781l1.546.717 1.546-.718c.218-.105 14.687-6.825 31.803-21.78 17.107-14.949 36.898-38.192 47.48-71.26l.018-.057.012-.047c5.969-20.927 7.004-44.882 7.013-59.664"/>
    <path fill="#eb6400" d="M123.413 108.517h-23.095l20.052-75.018h-16.621l-24.355 91.112h39.717z"/>
    <path fill="#eb6400" d="M143.485 33.499h-16.622l-18.378 68.754h38.844l4.302-16.094h-22.223zm-62.86 0l-7.158 26.78h-16.78l7.158-26.78H47.223l-18.378 68.754h16.622l6.918-25.88h16.78L56.27 124.611h16.622l24.355-91.112z"/>
</svg>
