<svg xmlns="http://www.w3.org/2000/svg" viewBox="0 0 48 48">
    <path d="M12 39h13v-3.5H12V39Zm1-19.5h10c.267 0 .5-.1.7-.3.2-.2.3-.433.3-.7 0-.267-.1-.5-.3-.7a.96.96 0 0 0-.7-.3H13c-.267 0-.5.1-.7.3-.2.2-.3.433-.3.7 0 .267.1.5.3.7.2.2.433.3.7.3Zm0-5h10c.267 0 .5-.1.7-.3.2-.2.3-.433.3-.7 0-.267-.1-.5-.3-.7a.96.96 0 0 0-.7-.3H13c-.267 0-.5.1-.7.3-.2.2-.3.433-.3.7 0 .267.1.5.3.7.2.2.433.3.7.3ZM32 22v-3h5v-6h-5v-3h5a2.89 2.89 0 0 1 2.119.881A2.89 2.89 0 0 1 40 13v1.5h4.5c.425 0 .781.144 1.069.431.287.288.431.644.431 1.069 0 .4-.144.75-.431 1.05-.288.3-.644.45-1.069.45H40V19a2.89 2.89 0 0 1-.881 2.119A2.889 2.889 0 0 1 37 22h-5Zm-8 10.5h-3V23h8V9H12c-1.4 0-2.583.483-3.55 1.45C7.483 11.417 7 12.6 7 14v4c0 1.4.483 2.583 1.45 3.55C9.417 22.517 10.6 23 12 23h4v9.5h-3V26h-1c-2.2 0-4.083-.783-5.65-2.35C4.783 22.083 4 20.2 4 18v-4c0-2.2.783-4.083 2.35-5.65C7.917 6.783 9.8 6 12 6h17c.825 0 1.531.294 2.119.881C31.706 7.47 32 8.175 32 9v14c0 .825-.294 1.531-.881 2.119A2.888 2.888 0 0 1 29 26h-5v6.5ZM11.25 42a2.17 2.17 0 0 1-1.594-.656A2.17 2.17 0 0 1 9 39.75v-5c0-.625.219-1.156.656-1.594a2.17 2.17 0 0 1 1.594-.656h14.5a2.17 2.17 0 0 1 1.594.656c.437.438.656.969.656 1.594v5a2.17 2.17 0 0 1-.656 1.594A2.17 2.17 0 0 1 25.75 42h-14.5Z"/>
</svg>
