<svg viewBox="0 0 48 48" xmlns="http://www.w3.org/2000/svg">
<path d="M12 44V35.4C10.1 33.6667 8.625 31.6417 7.575 29.325C6.525 27.0083 6 24.5667 6 22C6 17 7.75 12.75 11.25 9.25C14.75 5.75 19 4 24 4C28.1667 4 31.8583 5.225 35.075 7.675C38.2917 10.125 40.3833 13.3167 41.35 17.25L44.1 28.15C44.2333 28.6167 44.15 29.0417 43.85 29.425C43.55 29.8083 43.15 30 42.65 30H38V37C38 37.825 37.7063 38.5313 37.1188 39.1188C36.5313 39.7063 35.825 40 35 40H30V44H27V37H35V27H40.7L38.45 18C37.65 14.7667 35.9 12.125 33.2 10.075C30.5 8.025 27.4333 7 24 7C19.8333 7 16.2917 8.44167 13.375 11.325C10.4583 14.2083 9 17.7257 9 21.877C9 24.0242 9.43873 26.0641 10.3162 27.9966C11.1937 29.9291 12.4383 31.6469 14.05 33.15L15 34.05V44H12ZM24 32C24.5667 32 25.0417 31.8083 25.425 31.425C25.8083 31.0417 26 30.5667 26 30C26 29.4333 25.8083 28.9583 25.425 28.575C25.0417 28.1917 24.5667 28 24 28C23.4333 28 22.9583 28.1917 22.575 28.575C22.1917 28.9583 22 29.4333 22 30C22 30.5667 22.1917 31.0417 22.575 31.425C22.9583 31.8083 23.4333 32 24 32ZM22.5 25.6H25.55C25.55 24.7667 25.6583 24.0917 25.875 23.575C26.0917 23.0583 26.5333 22.4333 27.2 21.7C27.8 21.0333 28.3833 20.3583 28.95 19.675C29.5167 18.9917 29.8 18.1 29.8 17C29.8 15.6 29.2583 14.4167 28.175 13.45C27.0917 12.4833 25.75 12 24.15 12C22.8167 12 21.6083 12.3833 20.525 13.15C19.4417 13.9167 18.6833 14.9167 18.25 16.15L21 17.3C21.2333 16.5667 21.6417 15.975 22.225 15.525C22.8083 15.075 23.45 14.85 24.15 14.85C24.8833 14.85 25.4917 15.05 25.975 15.45C26.4583 15.85 26.7 16.3667 26.7 17C26.7 17.7 26.4917 18.325 26.075 18.875C25.6583 19.425 25.1667 19.9833 24.6 20.55C23.9333 21.25 23.4167 21.95 23.05 22.65C22.6833 23.35 22.5 24.3333 22.5 25.6Z" fill="white"/>
</svg>
