<svg viewBox="0 0 640 512" xmlns="http://www.w3.org/2000/svg">
<path fill-rule="evenodd" clip-rule="evenodd" d="M384 416C384 469 427 512 480 512C533 512 576 469 576 416H616C629.3 416 640 405.3 640 392C640 378.7 629.3 368 616 368H608V245.3C608 230.4 602.1 216.2 591.6 205.7L498.3 112.4C487.8 101.9 473.6 96 458.7 96H416V64C416 28.7002 387.3 0 352 0H64C28.7 0 0 28.7002 0 64V352C0 387.3 28.7 416 64 416C64 469 107 512 160 512C213 512 256 469 256 416H384ZM48 64C48 55.2002 55.2 48 64 48H352C360.8 48 368 55.2002 368 64V352C368 360.8 360.8 368 352 368H243.2C226.6 339.3 195.6 320 160 320C124.4 320 93.3999 339.3 76.8 368H64C55.2 368 48 360.8 48 352V64ZM557.6 239.6C557.8 239.7 557.9 239.9 558 240H416V144H458.6C460.8 144 462.8 144.8 464.3 146.3L557.6 239.6ZM193.941 449.941C184.939 458.943 172.73 464 160 464C147.27 464 135.061 458.943 126.059 449.941C117.057 440.939 112 428.73 112 416C112 403.27 117.057 391.061 126.059 382.059C135.061 373.057 147.27 368 160 368C172.73 368 184.939 373.057 193.941 382.059C202.943 391.061 208 403.27 208 416C208 428.73 202.943 440.939 193.941 449.941ZM513.941 382.059C522.943 391.061 528 403.27 528 416C528 428.73 522.943 440.939 513.941 449.941C504.939 458.943 492.73 464 480 464C467.27 464 455.061 458.943 446.059 449.941C437.057 440.939 432 428.73 432 416C432 403.27 437.057 391.061 446.059 382.059C455.061 373.057 467.27 368 480 368C492.73 368 504.939 373.057 513.941 382.059Z"/>
<path d="M207 148.2C216.9 139.4 217.8 124.2 209 114.3V114.4C200.2 104.5 185 103.6 175.1 112.4L103.1 176.4C97.9 180.9 95 187.5 95 194.3C95 201.1 98 207.6 103.1 212.2L175.1 276.2C185 285 200.2 284.1 209 274.2C217.8 264.3 216.9 249.1 207 240.3L182.2 218.2H223.1C245.2 218.2 263.1 236.1 263.1 258.2V282.2C263.1 295.5 273.8 306.2 287.1 306.2C300.4 306.2 311.1 295.5 311.1 282.2V258.2C311.1 209.6 271.7 170.2 223.1 170.2H182.2L207 148.2Z"/>
</svg>
