<svg viewBox="0 0 185 40" fill="#13322B" xmlns="http://www.w3.org/2000/svg">
    <path d="M19.047 18.864c-.661 0-1.198.513-1.198 1.141v15.971c0 .991-.791 1.739-1.841 1.739-1.05 0-1.84-.78-1.84-1.739V8.004c0-.63-.538-1.141-1.2-1.141h-8.73c-1.015 0-1.841-.803-1.841-1.791 0-.988.791-1.74 1.84-1.74.662 0 1.2-.512 1.2-1.14 0-.629-.538-1.141-1.2-1.141C1.862 1.048 0 2.816 0 5.07c0 2.254 1.9 4.074 4.238 4.074h7.534v26.831c0 2.218 1.9 4.023 4.237 4.023 2.338 0 4.237-1.767 4.237-4.023v-15.97c0-.63-.538-1.142-1.199-1.142z"/>
    <path d="M27.834 1.048H9.506c-.66 0-1.198.512-1.198 1.14 0 .63.537 1.142 1.198 1.142h18.33c1.015 0 1.84.78 1.84 1.739 0 .959-.86 1.79-1.84 1.79h-8.787c-.661 0-1.199.513-1.199 1.142v7c0 .63.538 1.14 1.199 1.14.66 0 1.198-.511 1.198-1.14V9.145h7.59c2.297 0 4.238-1.866 4.238-4.075 0-2.208-1.9-4.022-4.238-4.022h-.003zm17.717 13.93a1.17 1.17 0 00-.692-.592c-.622-.206-1.305.107-1.523.702a14.234 14.234 0 00-.872 4.913c0 3.771 1.488 7.38 4.082 9.897 2.624 2.664 6.113 4.131 9.826 4.131s6.98-1.465 9.597-4.124c2.601-2.584 4.09-6.194 4.09-9.904s-1.487-7.31-4.082-9.948c-2.59-2.63-6.002-4.08-9.605-4.08-3.8 0-7.195 1.407-9.816 4.07-.173.17-.34.347-.503.527a1.104 1.104 0 00.131 1.614 1.24 1.24 0 001.684-.126c.135-.148.273-.293.425-.445 2.164-2.198 4.959-3.359 8.08-3.359 2.934 0 5.724 1.193 7.856 3.36a12.055 12.055 0 013.434 8.385c0 3.11-1.252 6.164-3.434 8.334-2.167 2.2-4.957 3.411-7.858 3.411-3.088 0-5.888-1.185-8.098-3.43-2.17-2.105-3.416-5.137-3.416-8.315 0-1.425.25-2.825.738-4.158a1.078 1.078 0 00-.047-.861l.003-.002z"/>
    <path d="M56.374 0C50.91 0 45.658 2.173 41.962 5.963c-3.74 3.774-5.798 8.758-5.798 14.038 0 5.28 2.06 10.322 5.798 14.037 3.752 3.79 9.005 5.964 14.412 5.964 5.406 0 10.5-2.229 14.071-5.958.129-.128.257-.258.382-.39a1.102 1.102 0 00-.084-1.616 1.242 1.242 0 00-1.688.08c-.11.117-.224.232-.358.366-3.138 3.278-7.746 5.234-12.323 5.234-4.578 0-9.369-1.915-12.676-5.254-3.313-3.293-5.139-7.719-5.139-12.463 0-4.745 1.829-9.125 5.152-12.476 3.246-3.33 7.86-5.24 12.661-5.24 4.8 0 9.237 1.96 12.337 5.248 3.389 3.42 5.255 7.847 5.255 12.47 0 2.62-.575 5.148-1.711 7.507a1.085 1.085 0 00-.036.868c.111.29.335.521.63.648.598.259 1.31.006 1.584-.564a19.365 19.365 0 001.93-8.46c0-5.206-2.093-10.186-5.89-14.016C66.938 2.236 61.668 0 56.375 0zm50.03 17.82a10.624 10.624 0 001.647-5.678c0-6.117-5.249-11.094-11.698-11.094h-7.848c-2.335 0-4.237 1.804-4.237 4.022v20.26c0 .63.537 1.14 1.198 1.14.661 0 1.199-.512 1.199-1.14V5.07c0-.959.825-1.739 1.84-1.739h7.848c5.129 0 9.302 3.952 9.302 8.811 0 1.921-.642 3.748-1.858 5.285a1.102 1.102 0 00-.221.894c.061.312.257.59.539.759a10.701 10.701 0 013.041 2.723c1.297 1.714 1.982 3.718 1.982 5.793a9.687 9.687 0 01-.572 3.288 1.08 1.08 0 00.053.864c.141.28.387.488.696.588.125.04.255.061.385.061.511 0 .967-.31 1.133-.77.465-1.293.702-2.648.702-4.03 0-2.557-.843-5.022-2.435-7.128a12.968 12.968 0 00-2.694-2.648l-.002-.001zm2.245 15.675a1.242 1.242 0 00-1.675.22c-2.03 2.542-5.116 4.002-8.467 4.002H89.03a1.434 1.434 0 00-.716-.011c-.913-.095-1.65-.863-1.65-1.73v-6.389c0-.63-.538-1.14-1.2-1.14-.66 0-1.198.512-1.198 1.14v6.389c0 2.218 1.9 4.023 4.238 4.023.037 0 .073-.002.111-.005.036.003.072.005.11.005h9.782c4.104 0 7.886-1.787 10.374-4.903.194-.241.277-.54.233-.842a1.12 1.12 0 00-.466-.76l.001.001z"/>
    <path d="M91.6 13.004c-.662 0-1.2.512-1.2 1.14v2.241c0 .63.538 1.141 1.2 1.141h4.753c3.067 0 5.563-2.415 5.563-5.384 0-2.968-2.444-5.28-5.563-5.28h-4.754c-.66 0-1.198.513-1.198 1.142v2.113c0 .63.537 1.141 1.198 1.141.661 0 1.199-.512 1.199-1.14v-.973h3.555c1.776 0 3.167 1.316 3.167 2.997 0 1.681-1.42 3.102-3.167 3.102h-3.555v-1.098c0-.63-.538-1.141-1.199-1.141v-.002zm-1.2 20.04c0 .63.538 1.141 1.2 1.141h6.929c3.852-.064 6.869-2.96 6.869-6.589 0-3.63-3.025-6.473-6.89-6.537h-1.117c-.66 0-1.198.512-1.198 1.141s.537 1.141 1.198 1.141h1.095c2.532.041 4.515 1.91 4.515 4.253 0 2.344-1.975 4.265-4.494 4.306h-5.71v-8.56h1.022c.661 0 1.199-.513 1.199-1.141 0-.629-.538-1.141-1.199-1.141H91.6c-.66 0-1.198.512-1.198 1.14v10.846zm41.244 4.673h-7.592a1.245 1.245 0 00-.661-.016c-.912-.114-1.595-.85-1.595-1.724v-20.61c0-.63-.537-1.142-1.198-1.142-.661 0-1.199.513-1.199 1.142v20.609c0 2.218 1.9 4.023 4.238 4.023.031 0 .061 0 .064-.004.033.002.068.004.102.004h7.841c.661 0 1.198-.513 1.198-1.142 0-.628-.537-1.14-1.198-1.14zM141.71 1.048h-18.071c-2.377 0-4.238 1.766-4.238 4.022v6.332c0 .63.537 1.141 1.198 1.141.661 0 1.199-.512 1.199-1.14V5.07c0-.99.791-1.739 1.842-1.739h18.071c.998 0 1.841.797 1.841 1.74 0 .941-.86 1.79-1.841 1.79h-4.978c-.662 0-1.199.513-1.199 1.141 0 .629.537 1.141 1.199 1.141h4.978c2.297 0 4.238-1.866 4.238-4.074 0-2.209-1.9-4.023-4.238-4.023l-.001.002z"/>
    <path d="M141.708 31.901H127.93v-7.355h11.679c2.337 0 4.238-1.827 4.238-4.074s-1.941-4.023-4.238-4.023H127.93V9.145h3.769c.661 0 1.198-.513 1.198-1.141 0-.629-.537-1.141-1.198-1.141h-4.968c-.661 0-1.198.512-1.198 1.14v9.587c0 .63.537 1.141 1.198 1.141h12.876c.981 0 1.843.814 1.843 1.74 0 .987-.826 1.79-1.843 1.79h-12.876c-.661 0-1.198.513-1.198 1.141v9.639c0 .63.537 1.14 1.198 1.14h14.977c.981 0 1.843.838 1.843 1.794 0 .955-.861 1.739-1.843 1.739h-5.601c-.661 0-1.198.512-1.198 1.14 0 .629.537 1.141 1.198 1.141h5.601c2.297 0 4.238-1.841 4.238-4.022 0-1.07-.447-2.088-1.258-2.868a4.285 4.285 0 00-2.98-1.206v.002zM184.653 4.82a3.986 3.986 0 00-1.642-2.602c-1.872-1.33-4.479-.952-5.938.868l-3.634 4.716c-.19.246-.267.546-.218.847.048.304.219.57.481.751a1.24 1.24 0 001.67-.248l3.62-4.697c.644-.803 1.78-.982 2.587-.407.388.276.642.683.716 1.145.072.448-.036.891-.304 1.248l-11.328 14.72a1.106 1.106 0 00-.232.675v8.944c0 .63.537 1.141 1.198 1.141.661 0 1.199-.512 1.199-1.14v-8.57l11.105-14.43V7.78c.64-.854.895-1.903.721-2.955l-.001-.003z"/>
    <path d="M171.628 33.533c-.661 0-1.199.513-1.199 1.141v1.303c0 .992-.791 1.74-1.841 1.74-1.049 0-1.84-.797-1.84-1.74V21.835c0-.242-.08-.475-.229-.672l-11.25-14.76a1.54 1.54 0 01-.362-1.223c.066-.445.324-.842.73-1.12.426-.29.932-.405 1.423-.324.454.077.838.317 1.114.701l9.449 12.257c.226.292.586.465.965.465.38 0 .741-.174.966-.465l3.528-4.576a1.09 1.09 0 00.217-.847 1.12 1.12 0 00-.481-.751c-.532-.369-1.281-.257-1.67.247l-2.563 3.324-8.461-10.974c-.622-.869-1.565-1.447-2.654-1.629a4.411 4.411 0 00-3.232.717c-.943.644-1.549 1.59-1.707 2.659a3.72 3.72 0 00.827 2.921l10.99 14.42v13.773c0 2.217 1.9 4.022 4.237 4.022 2.338 0 4.238-1.767 4.238-4.023v-1.303c0-.3-.121-.582-.34-.796a1.22 1.22 0 00-.857-.345h.002z"/>
</svg>
